<?xml version="1.0" encoding="UTF-8" standalone="no"?>
<!DOCTYPE svg PUBLIC "-//W3C//DTD SVG 1.1//EN" "http://www.w3.org/Graphics/SVG/1.1/DTD/svg11.dtd">
<svg width="100%" height="100%" viewBox="0 0 16 16" version="1.1" xmlns="http://www.w3.org/2000/svg" xmlns:xlink="http://www.w3.org/1999/xlink" xml:space="preserve" xmlns:serif="http://www.serif.com/" style="fill-rule:evenodd;clip-rule:evenodd;stroke-linejoin:round;stroke-miterlimit:1.41421;">
    <path d="M4.77,14.18L0.56,8L4.77,1.82L8.98,8L4.77,14.18Z" style="fill:rgb(32,143,204);fill-rule:nonzero;"/>
    <path d="M15.44,8L11.23,1.82L4.77,1.82L8.98,8L15.44,8Z" style="fill:rgb(61,191,246);fill-rule:nonzero;"/>
    <path d="M11.23,14.18L7.02,8L0.56,8L4.77,14.18L11.23,14.18Z" style="fill:rgb(61,191,246);fill-rule:nonzero;"/>
    <path d="M11.23,14.18L7.02,8L11.23,1.82L15.44,8L11.23,14.18Z" style="fill:rgb(0,113,188);fill-rule:nonzero;"/>
    <path d="M11.23,14.32C11.181,14.318 11.136,14.292 11.11,14.25L6.9,8.08C6.869,8.031 6.869,7.969 6.9,7.92L11.11,1.75C11.136,1.712 11.179,1.69 11.225,1.69C11.271,1.69 11.314,1.712 11.34,1.75L15.55,7.92C15.591,7.965 15.591,8.035 15.55,8.08L11.34,14.25C11.317,14.29 11.276,14.316 11.23,14.32ZM7.19,8L11.19,13.93L15.19,8L11.19,2.07L7.19,8Z" style="fill:white;fill-rule:nonzero;"/>
    <path d="M11.23,14.32L4.77,14.32C4.724,14.316 4.683,14.29 4.66,14.25L0.45,8.08C0.421,8.034 0.421,7.976 0.45,7.93C0.475,7.887 0.52,7.86 0.57,7.86L7,7.86C7.044,7.86 7.086,7.883 7.11,7.92L11.32,14.1C11.35,14.142 11.35,14.198 11.32,14.24C11.305,14.28 11.271,14.31 11.23,14.32ZM4.85,14L11,14L7,8.1L0.83,8.1L4.85,14Z" style="fill:white;fill-rule:nonzero;"/>
    <path d="M7,8.14L0.56,8.14C0.51,8.14 0.465,8.113 0.44,8.07C0.411,8.024 0.411,7.966 0.44,7.92L4.66,1.75C4.683,1.71 4.724,1.684 4.77,1.68L11.23,1.68C11.282,1.68 11.33,1.712 11.35,1.76C11.38,1.802 11.38,1.858 11.35,1.9L7.13,8.08C7.103,8.124 7.051,8.148 7,8.14ZM0.83,7.86L6.94,7.86L11,2L4.85,2L0.83,7.86Z" style="fill:white;fill-rule:nonzero;"/>
    <path d="M10.74,8.64L12.87,11.76L14.11,9.96L11.97,6.83L10.74,8.64Z" style="fill:white;fill-rule:nonzero;"/>
    <circle cx="4.77" cy="1.82" r="0.56" style="fill:white;"/>
    <circle cx="11.23" cy="1.82" r="0.56" style="fill:white;"/>
    <circle cx="0.56" cy="8" r="0.56" style="fill:white;"/>
    <circle cx="7.02" cy="8" r="0.56" style="fill:white;"/>
    <circle cx="4.77" cy="14.18" r="0.56" style="fill:white;"/>
    <circle cx="11.23" cy="14.18" r="0.56" style="fill:white;"/>
    <circle cx="15.44" cy="8" r="0.56" style="fill:white;"/>
    <ellipse cx="12.21" cy="9.54" rx="0.21" ry="0.31" style="fill:rgb(0,113,188);"/>
</svg>
