<?xml version="1.0"?>
<svg width="512" height="512" xmlns="http://www.w3.org/2000/svg" xmlns:svg="http://www.w3.org/2000/svg">
 <g>
  <title>Layer 1</title>
  <g fill-opacity="0.8" id="svg_1">
   <path fill="#ffffff" id="svg_2" d="m417.5,160l-61.700012,0c-32.099976,-36 -42.199982,-48 -54.5,-48l-88.499985,0c-12.300003,0 -22.200012,12 -54.5,48l-13.300003,0l0,-16l-34,0l0,16l-13.5,0c-17.599998,0 -33.5,13.199997 -33.5,30.699997l0,176.000015c0,17.5 15.900002,33.299988 33.5,33.299988l320,0c17.600006,0 30.5,-15.800018 30.5,-33.299988l0,-176.000015c0,-17.5 -12.899994,-30.699997 -30.5,-30.699997zm14.5,206.700012c0,9.299988 -6.200012,17.299988 -14.5,17.299988l-320,0c-8.699997,0 -17.5,-8.699982 -17.5,-17.299988l0,-176c0,-8.199997 8.099998,-14.699997 17.5,-14.699997l60.699997,0l7.100006,0l4.800003,-3.199997c4,-4.5 7.699997,-10 11.099991,-13.800003c11.300003,-12.699997 19.5,-21.699997 25.300003,-26.900009c4.699997,-4.199989 6.199997,-4.099991 6.199997,-4.099991l88.500015,0c0,0 1.599976,-0.099998 6.699982,4.5c6.100006,5.5 14.700012,16.5 26.600006,29.800003c2.899994,3.299988 6,6.799988 9.299988,10.5l4.800018,3.199997l7.199982,0l61.700012,0c8.799988,0 14.5,6 14.5,14.699997l0,176z"/>
   <path fill="#ffffff" id="svg_3" d="m256,189.5c-47.099991,0 -85.5,38.400009 -85.5,85.5s38.400009,85.5 85.5,85.5s85.5,-38.399994 85.5,-85.5s-38.399994,-85.5 -85.5,-85.5zm0,155c-38.400009,0 -69.5,-31.100006 -69.5,-69.5s31.100006,-69.5 69.5,-69.5s69.5,31.100006 69.5,69.5s-31.100006,69.5 -69.5,69.5z"/>
   <rect fill="#ffffff" id="svg_4" y="192" x="352" width="17" height="17"/>
   <circle fill="#ffffff" id="svg_5" r="32" cy="275" cx="256"/>
  </g>
 </g>
</svg>