<?xml version="1.0"?>
<svg width="512" height="512" xmlns="http://www.w3.org/2000/svg" xmlns:svg="http://www.w3.org/2000/svg">
 <g>
  <title>Layer 1</title>
  <g fill-opacity="0.8" id="svg_1">
   <path fill="#ffffff" id="svg_2" d="m417.5,160l-61.700012,0c-32.099976,-36 -42.199982,-48 -54.5,-48l-88.499985,0c-12.300003,0 -22.200012,12 -54.5,48l-13.300003,0l0,-16l-34,0l0,16l-13.5,0c-17.599998,0 -33.5,13.199997 -33.5,30.699997l0,176.000015c0,17.5 15.900002,33.299988 33.5,33.299988l320,0c17.600006,0 30.5,-15.800018 30.5,-33.299988l0,-176.000015c0,-17.5 -12.899994,-30.699997 -30.5,-30.699997zm-161.5,200.5c-47.099991,0 -85.5,-38.399994 -85.5,-85.5s38.400009,-85.5 85.5,-85.5s85.5,38.400009 85.5,85.5s-38.399994,85.5 -85.5,85.5zm113,-151.5l-17,0l0,-17l17,0l0,17z"/>
   <path fill="#ffffff" id="svg_3" d="m256,205.5c-38.400009,0 -69.5,31.100006 -69.5,69.5s31.100006,69.5 69.5,69.5s69.5,-31.100006 69.5,-69.5s-31.100006,-69.5 -69.5,-69.5zm0,101.5c-17.699997,0 -32,-14.299988 -32,-32s14.300003,-32 32,-32s32,14.299988 32,32s-14.299988,32 -32,32z"/>
  </g>
 </g>
</svg>