<?xml version="1.0"?>
<svg width="512" height="512" xmlns="http://www.w3.org/2000/svg" xmlns:svg="http://www.w3.org/2000/svg">
 <g>
  <title>Layer 1</title>
  <path d="m426.875671,375.207092l-119.571655,-120.027313l119.845032,-118.477997c4.921417,-4.921387 4.921417,-12.941437 0,-17.862823l-34.085175,-34.267487c-2.369568,-2.369553 -5.559357,-3.645477 -8.931427,-3.645477c-3.37207,0 -6.561859,1.467065 -8.931427,3.645477l-119.298187,118.113449l-119.480499,-118.022308c-2.369568,-2.369537 -5.559357,-3.645462 -8.931419,-3.645462c-3.37207,0 -6.561859,1.46705 -8.931412,3.645462l-33.994072,34.267487c-4.921394,4.921402 -4.921394,12.941437 0,17.862839l119.845032,118.477966l-119.480476,119.936188c-2.36956,2.369568 -3.73661,5.559357 -3.73661,8.931396c0,3.37207 1.275917,6.56189 3.73661,8.931427l34.085205,34.267487c2.460693,2.460693 5.650497,3.736603 8.931427,3.736603c3.189796,0 6.470711,-1.184784 8.931404,-3.736603l119.024811,-119.571625l119.115936,119.480499c2.460693,2.460693 5.650482,3.736603 8.931396,3.736603c3.189789,0 6.470734,-1.184784 8.931427,-3.736603l34.085205,-34.267487c2.369537,-2.369568 3.736603,-5.559357 3.736603,-8.931396c-0.091125,-3.280945 -1.45816,-6.470734 -3.827728,-8.840302z" id="svg_1" fill="#ffffff" fill-opacity="0.8"/>
 </g>
</svg>