<?xml version="1.0"?>
<svg width="512" height="512" xmlns="http://www.w3.org/2000/svg" xmlns:svg="http://www.w3.org/2000/svg">
 <g>
  <title>Layer 1</title>
  <g stroke="null" id="svg_1">
   <path stroke="null" fill="#ffffff" id="svg_2" d="m255.999985,97c-87.804916,0 -158.999985,71.195068 -158.999985,158.999985c0,87.804947 71.195068,159.000015 158.999985,159.000015c87.804947,0 159.000015,-71.195068 159.000015,-159.000015c0,-87.804916 -71.195068,-158.999985 -159.000015,-158.999985zm76.873672,212.591583c1.064758,1.064667 1.632599,2.484314 1.632599,3.974884c0,1.490692 -0.567841,2.981323 -1.632599,3.975098l-15.332123,15.403137c-1.135803,1.13562 -2.555389,1.632568 -3.975067,1.632568c-1.419556,0 -2.910217,-0.567871 -3.974884,-1.632568l-53.591599,-53.662537l-53.520523,53.733459c-1.064743,1.135712 -2.555328,1.632629 -3.975006,1.632629c-1.419693,0 -2.910278,-0.567932 -3.975006,-1.632629l-15.332108,-15.403137c-1.064774,-1.064697 -1.632584,-2.484375 -1.632584,-3.974945c0,-1.490631 0.56781,-2.981354 1.632584,-3.975006l53.733475,-53.946518l-53.875504,-53.236557c-2.200424,-2.200485 -2.200424,-5.820572 0,-8.020996l15.332169,-15.403152c1.064758,-1.064713 2.48439,-1.632568 3.974991,-1.632568c1.490646,0 2.910294,0.567856 3.974991,1.632568l53.73349,53.023682l53.73349,-53.023682c1.064758,-1.064713 2.484406,-1.632568 3.975037,-1.632568c1.490631,0 2.910278,0.567856 3.974976,1.632568l15.332092,15.403152c2.2005,2.200424 2.2005,5.820511 0,8.020996l-53.875336,53.236557l53.662445,53.875565z"/>
  </g>
 </g>
</svg>