<?xml version="1.0"?>
<svg width="512" height="512" xmlns="http://www.w3.org/2000/svg" xmlns:svg="http://www.w3.org/2000/svg">
 <g>
  <title>Layer 1</title>
  <g stroke="null" fill-opacity="0.8" id="svg_1">
   <path fill="#ffffff" stroke="null" id="svg_2" d="m255.999985,185.775879c-38.836609,0 -70.296417,31.459824 -70.296417,70.296448c0,38.836609 31.459808,70.224091 70.296417,70.224091c38.836624,0 70.296463,-31.459808 70.296463,-70.224091c0,-38.836624 -31.459839,-70.296448 -70.296463,-70.296448zm0,101.68396c-17.357147,0 -31.459808,-14.102692 -31.459808,-31.459854c0,-17.357147 14.102661,-31.459808 31.459808,-31.459808c17.357162,0 31.459854,14.102661 31.459854,31.459808c0,17.357162 -14.102692,31.459854 -31.459854,31.459854z"/>
   <path fill="#ffffff" stroke="null" id="svg_3" d="m255.999985,94c-89.461594,0 -161.999985,72.538391 -161.999985,161.999985c0,89.461624 72.538391,162.000015 161.999985,162.000015s162.000015,-72.538391 162.000015,-162.000015c0,-89.461594 -72.538391,-161.999985 -162.000015,-161.999985zm0,250.810669c-49.033936,0 -88.810715,-39.776733 -88.810715,-88.810684c0,-49.033936 39.776779,-88.810715 88.810715,-88.810715c49.033951,0 88.810684,39.776779 88.810684,88.810715c0,49.033951 -39.776733,88.810684 -88.810684,88.810684z"/>
  </g>
 </g>
</svg>