<?xml version="1.0"?>
<svg width="512" height="512" xmlns="http://www.w3.org/2000/svg" xmlns:svg="http://www.w3.org/2000/svg">
 <g>
  <title>Layer 1</title>
  <g fill-opacity="0.8" id="svg_1">
   <path fill="#ffffff" id="svg_2" d="m96,370.899994c0,15.5 12.699997,29.100006 28.200005,29.100006l266.299995,0c15.5,0 25.5,-13.600006 25.5,-29.100006l0,-162.899994l-320,0l0,162.899994z"/>
   <path fill="#ffffff" id="svg_3" d="m416,168.800003c0,-15.5 -10,-24.800003 -25.5,-24.800003c0,0 -154.699997,0 -167,0c-4.699997,0 -10.699997,-9.899994 -18.5,-18.999992c-7.100006,-8.300003 -14.699997,-13 -20.5,-13c-7.5,0 -60.299995,0 -60.299995,0c-15.5,0 -28.200005,8.899994 -28.200005,24.299995l0,55.699997l320,0l0,-23.199997z"/>
  </g>
 </g>
</svg>