<?xml version="1.0"?>
<svg width="512" height="512" xmlns="http://www.w3.org/2000/svg" xmlns:svg="http://www.w3.org/2000/svg">
 <g>
  <title>Layer 1</title>
  <g stroke="null" id="svg_1">
   <path fill="#ffffff" stroke="null" id="svg_2" d="m409.771756,200.135189l-307.54354,0c-15.633316,0 -16.42823,8.125791 -15.544992,18.106383l11.482097,161.63259c0.794914,9.892268 3.091334,18.106383 18.636326,18.106383l279.279918,0c15.898288,0 17.753088,-8.125791 18.636326,-18.106383l10.687182,-163.664038c0.794914,-9.892268 0,-16.074935 -15.633316,-16.074935z"/>
   <g stroke="null" id="svg_3">
    <path fill="#ffffff" stroke="null" id="svg_4" d="m406.327127,157.121489c-0.441619,-10.952154 -3.974572,-13.513544 -13.336897,-13.513544c0,0 -107.225117,0 -126.47971,0c-19.254593,0 -21.551012,0.264971 -36.124442,-15.368345c-12.100363,-13.071925 -7.330877,-12.895278 -32.326518,-12.895278c-19.961183,0 -66.507836,0 -66.507836,0c-15.368345,0 -20.844421,-1.324857 -22.257603,14.661754c-1.324857,14.750078 -4.416191,50.521225 -4.85781,55.997302l303.303997,0l-1.413181,-28.881889z"/>
   </g>
  </g>
 </g>
</svg>