<?xml version="1.0"?>
<svg width="512" height="512" xmlns="http://www.w3.org/2000/svg" xmlns:svg="http://www.w3.org/2000/svg">
 <g>
  <title>Layer 1</title>
  <path fill-opacity="0.8" fill="#ffffff" id="svg_1" d="m390.5,144c0,0 -154.699997,0 -167,0c-4.699997,0 -10.699997,-9.899994 -18.5,-19c-7.100006,-8.300003 -14.699997,-13 -20.5,-13c-7.5,0 -60.299995,0 -60.299995,0c-15.5,0 -28.200005,8.900002 -28.200005,24.300003l0,234.599991c0,15.5 12.699997,29.100006 28.200005,29.100006l266.299995,0c15.5,0 25.5,-13.600006 25.5,-29.100006l0,-202.099991c0,-15.5 -10,-24.800003 -25.5,-24.800003zm-266.300003,-16l43.800003,0c0,0 7.399994,0 11.400003,0c3.899994,0 8.599991,1.600006 14.300003,8.300003c12.099991,14.300003 15.5,23.699997 29.899994,23.699997l167,0c6.600006,0 9.5,2.199997 9.5,8.800003l0,23.199997l-288,0l0,-55.699997c0,-9 10.300003,-8.300003 12.199997,-8.300003zm266.300003,256l-266.300003,0c-6.5,0 -12.199997,-6.200012 -12.199997,-13.100006l0,-162.899994l288,0l0,162.899994c0,6 -2.600006,13.100006 -9.5,13.100006z"/>
 </g>
</svg>