<?xml version="1.0"?>
<svg width="512" height="512" xmlns="http://www.w3.org/2000/svg" xmlns:svg="http://www.w3.org/2000/svg">
 <g>
  <title>Layer 1</title>
  <g id="svg_1" stroke="null" fill-opacity="0.8">
   <path d="m256.068298,106.001984c-82.894012,0 -150.062302,23.984283 -150.062302,53.570709c0,5.675827 2.49707,11.144058 7.080048,16.278152l-0.040855,0.005356c21.366005,26.046082 100.109612,118.312927 100.109612,144.42868l0,58.258148l0,0c0,15.192627 19.346405,27.454987 42.856613,27.454987s42.856567,-12.26236 42.856567,-27.454987l0,0l0,-55.63858c0,-0.830994 0.00531,-1.700867 0.00531,-2.619568c0,-26.115753 77.672241,-116.896683 101.109436,-145.938721l0,-0.001343c4.017792,-4.692108 6.011292,-9.648071 6.011292,-14.772125c0,-29.586426 -67.031738,-53.570709 -149.92572,-53.570709zm0.062256,85.71315c-61.645142,0 -117.930557,-14.731949 -117.930557,-32.142441s55.615097,-32.142426 117.930557,-32.142426c62.316193,0 117.929901,15.008514 117.929901,32.142426s-56.28476,32.142441 -117.929901,32.142441z" id="svg_2" stroke="null" fill="#ffffff"/>
  </g>
 </g>
</svg>