<?xml version="1.0"?>
<svg width="512" height="512" xmlns="http://www.w3.org/2000/svg" xmlns:svg="http://www.w3.org/2000/svg">
 <g>
  <title>Layer 1</title>
  <g stroke="null" id="svg_1">
   <g stroke="null" id="svg_2">
    <path fill="#ffffff" stroke="null" id="svg_3" d="m256.755529,175.415805c-21.551337,0 -41.76017,8.385408 -56.93692,23.562996s-23.562996,35.385583 -23.562996,56.93692c0,21.54966 8.385408,41.674639 23.562996,56.93692c15.177588,15.177588 35.471114,23.562996 56.93692,23.562996c21.54966,0 41.758493,-8.385408 56.93692,-23.562996c15.177588,-15.179265 23.562996,-35.38726 23.562996,-56.93692c0,-21.551337 -8.385408,-41.676316 -23.562996,-56.93692c-15.178427,-15.177588 -35.386421,-23.562996 -56.93692,-23.562996zm0,147.583179c-37.148196,0 -67.083263,-30.103614 -67.083263,-67.083263c0,-36.980487 29.935068,-67.083263 67.083263,-67.083263c37.146519,0 67.083263,30.102776 67.083263,67.083263c0,36.979649 -29.936745,67.083263 -67.083263,67.083263z"/>
   </g>
   <g stroke="null" id="svg_4">
    <path fill="#ffffff" stroke="null" id="svg_5" d="m210.54103,110.787789c3.738215,5.557848 8.485194,10.402937 14.066522,14.313053c9.234011,6.469342 20.088922,9.888912 31.39329,9.888912c11.304368,0 22.160956,-3.419569 31.394129,-9.888912c5.57965,-3.910116 10.327468,-8.755204 14.064845,-14.312214c8.658772,2.70681 17.050888,6.186754 25.09501,10.40713c-1.284644,6.57416 -1.353405,13.357955 -0.170224,20.068797c1.956316,11.098087 7.214805,21.189087 15.20526,29.179542c10.343401,10.344239 24.097147,16.040447 38.728007,16.040447c3.55709,0 7.063868,-0.334578 10.498531,-1.002056c4.219537,8.049992 7.698643,16.446301 10.402099,25.111781c-5.552817,3.739892 -10.394552,8.486871 -14.300475,14.06736c-6.460957,9.230657 -9.875495,20.079698 -9.874656,31.376519c0,11.292629 3.412022,22.138315 9.867948,31.366457c3.90173,5.577135 8.738434,10.324114 14.285381,14.063168c-2.710164,8.670512 -6.194301,17.067659 -10.421385,25.120167c-3.422085,-0.661609 -6.914607,-0.995348 -10.458281,-0.995348c-14.63086,0 -28.384606,5.697885 -38.726329,16.042124c-7.978716,7.977877 -13.233012,18.051268 -15.196875,29.130907c-1.186535,6.698264 -1.12616,13.471158 0.147583,20.036932c-8.055861,4.226246 -16.45804,7.707867 -25.128552,10.415515c-3.74073,-5.542755 -8.486871,-10.376104 -14.063168,-14.273641c-9.223949,-6.44754 -20.064604,-9.856208 -31.349686,-9.856208c-11.284243,0 -22.124899,3.40783 -31.348848,9.857047c-5.575458,3.897538 -10.322437,8.730887 -14.063168,14.272803c-8.669673,-2.70681 -17.071852,-6.18927 -25.127713,-10.414677c1.273743,-6.564936 1.334118,-13.33783 0.147583,-20.036932c-1.963863,-11.080478 -7.218159,-21.154707 -15.196875,-29.131746c-10.343401,-10.344239 -24.097147,-16.041285 -38.728007,-16.041285c-3.543673,0 -7.035357,0.332062 -10.457442,0.995348c-4.226246,-8.051669 -7.710383,-16.450493 -10.421385,-25.121005c5.546947,-3.739892 10.383651,-8.485194 14.285381,-14.063168c6.455926,-9.227303 9.868787,-20.073828 9.868787,-31.368134c0,-11.295983 -3.414538,-22.145862 -9.875495,-31.376519c-3.905923,-5.57965 -8.747658,-10.327468 -14.300475,-14.06736c2.704294,-8.664642 6.181723,-17.060951 10.402099,-25.110943c3.434663,0.667478 6.940602,1.002895 10.499369,1.002895c14.629183,0 28.383767,-5.697046 38.728007,-16.041285c7.990455,-7.991294 13.248106,-18.081455 15.20526,-29.180381c1.183181,-6.710842 1.115259,-13.494637 -0.170224,-20.067958c8.04496,-4.219537 16.4354,-7.699482 25.094172,-10.40713m84.09474,-15.788046c-5.956155,15.537322 -21.002931,26.573358 -38.634928,26.573358c-17.63032,0 -32.677096,-11.036035 -38.63409,-26.573358c-17.161576,4.104657 -33.283361,10.87839 -47.904158,19.863354c6.765347,15.196036 3.926048,33.62884 -8.538022,46.094587c-8.075986,8.075986 -18.657533,12.111045 -29.239917,12.111045c-5.747359,0 -11.49304,-1.189889 -16.840415,-3.567991c-8.977418,14.622474 -15.74528,30.750129 -19.843229,47.912544c15.52139,5.963702 26.541493,21.004608 26.541493,38.624866c0,17.616065 -11.012556,32.649424 -26.523884,38.618158c4.107173,17.161576 10.881744,33.283361 19.867547,47.904158c5.333119,-2.365524 11.066223,-3.548705 16.796811,-3.548705c10.583223,0 21.163093,4.035058 29.240756,12.111045c12.444784,12.444784 15.293307,30.842369 8.565694,46.026666c14.622474,8.980772 30.74426,15.750312 47.906674,19.850776c5.97628,-15.495395 21.002093,-26.494535 38.603902,-26.494535c17.602648,0 32.627622,10.997462 38.603902,26.494535c17.163253,-4.100464 33.2842,-10.870843 47.907513,-19.852453c-6.727613,-15.18262 -3.87909,-33.580205 8.566533,-46.024988c8.074309,-8.076825 18.655856,-12.111883 29.23824,-12.111883c5.732265,0 11.462853,1.183181 16.798488,3.549543c8.985803,-14.620797 15.759536,-30.742583 19.866708,-47.904158c-15.511328,-5.968733 -26.523045,-21.00377 -26.523045,-38.618158c-0.000839,-17.620258 11.020942,-32.659487 26.540655,-38.624866c-4.097949,-17.161576 -10.864973,-33.290069 -19.843229,-47.913382c-5.345698,2.378102 -11.093895,3.567153 -16.839576,3.567153c-10.583223,0 -21.163093,-4.03422 -29.240756,-12.110206c-12.463232,-12.463232 -15.301692,-30.896874 -8.536345,-46.094587c-14.618282,-8.984126 -30.741744,-15.757859 -47.90332,-19.862516l0,0z"/>
   </g>
  </g>
 </g>
</svg>