<?xml version="1.0"?>
<svg width="512" height="512" xmlns="http://www.w3.org/2000/svg" xmlns:svg="http://www.w3.org/2000/svg">
 <g>
  <title>Layer 1</title>
  <path fill-opacity="0.8" fill="#ffffff" id="svg_1" d="m424.5,216.5l-15.200012,0c-12.399994,0 -22.799988,-10.699997 -22.799988,-23.399994c0,-6.400009 2.700012,-12.200012 7.5,-16.5l9.799988,-9.600006c9.700012,-9.600006 9.700012,-25.300003 0,-34.900009l-22.299988,-22.099991c-4.399994,-4.400002 -10.899994,-7 -17.5,-7c-6.600006,0 -13,2.599998 -17.5,7l-9.399994,9.400002c-4.5,5 -10.5,7.699997 -17,7.699997c-12.800018,0 -23.5,-10.400002 -23.5,-22.700005l0,-15.299995c0,-13.5 -10.899994,-25.100002 -24.5,-25.100002l-30.400009,0c-13.599991,0 -24.399994,11.500004 -24.399994,25.100002l0,15.199997c0,12.300003 -10.699997,22.700005 -23.5,22.700005c-6.399994,0 -12.300003,-2.700005 -16.600006,-7.400002l-9.699997,-9.599998c-4.399994,-4.5 -10.899994,-7 -17.5,-7s-13,2.599998 -17.5,7l-22.5,22c-9.599998,9.600006 -9.599998,25.300003 0,34.800003l9.400002,9.399994c5,4.5 7.799995,10.5 7.799995,16.899994c0,12.800003 -10.399994,23.400009 -22.799995,23.400009l-15.200005,0c-13.699997,0 -25.200001,10.699997 -25.200001,24.300003l0,15.199997l0,15.200012c0,13.5 11.499996,24.299988 25.200001,24.299988l15.199997,0c12.400002,0 22.800003,10.700012 22.800003,23.399994c0,6.399994 -2.800003,12.399994 -7.800003,16.899994l-9.400002,9.300018c-9.599998,9.600006 -9.599998,25.299988 0,34.799988l22.299995,22.200012c4.400009,4.5 10.900009,7 17.5,7c6.600006,0 13,-2.600006 17.5,-7l9.700012,-9.600006c4.199997,-4.700012 10.199997,-7.399994 16.599991,-7.399994c12.800003,0 23.5,10.399994 23.5,22.699982l0,15.200012c0,13.5 10.800003,25.100006 24.5,25.100006l30.400009,0c13.600006,0 24.399994,-11.5 24.399994,-25.100006l0,-15.200012c0,-12.299988 10.700012,-22.699982 23.5,-22.699982c6.399994,0 12.399994,2.799988 17,7.699982l9.399994,9.400024c4.5,4.399994 10.899994,7 17.5,7c6.600006,0 13,-2.600006 17.5,-7l22.300018,-22.200012c9.599976,-9.600006 9.599976,-25.299988 0,-34.899994l-9.800018,-9.600006c-4.799988,-4.300018 -7.5,-10.200012 -7.5,-16.5c0,-12.800018 10.399994,-23.399994 22.800018,-23.399994l15.199982,0c13.600006,0 23.300018,-10.700012 23.300018,-24.300018l0,-15.299988l0,-15.199997c0.199982,-13.600006 -9.5,-24.300003 -23.100006,-24.300003zm-87.700012,39.5l0,0c0,44.100006 -35.700012,80 -80,80c-44.300003,0 -80,-35.899994 -80,-80l0,0l0,0c0,-44.099991 35.699997,-80 80,-80c44.300018,0 80,35.899994 80,80l0,0z"/>
 </g>
</svg>