<?xml version="1.0"?>
<svg width="512" height="512" xmlns="http://www.w3.org/2000/svg" xmlns:svg="http://www.w3.org/2000/svg">
 <g>
  <title>Layer 1</title>
  <g fill-opacity="0.8" id="svg_1">
   <path fill="#ffffff" id="svg_2" d="m256.799988,160c-25.699997,0 -49.800003,10 -67.899994,28.100006c-18.100006,18.099991 -28.100006,42.199997 -28.100006,67.899994s10,49.700012 28.100006,67.899994c18.100006,18.100006 42.300003,28.100006 67.899994,28.100006c25.700012,0 49.799988,-10 67.899994,-28.100006c18.100006,-18.100006 28.100006,-42.199982 28.100006,-67.899994s-10,-49.699997 -28.100006,-67.899994c-18.099976,-18.100006 -42.199982,-28.100006 -67.899994,-28.100006zm0,176c-44.300003,0 -80,-35.899994 -80,-80c0,-44.100006 35.699997,-80 80,-80c44.299988,0 80,35.899994 80,80c0,44.100006 -35.699982,80 -80,80z"/>
   <path fill="#ffffff" id="svg_3" d="m424.5,216l-15.200012,0c-12.399994,0 -22.799988,-10.399994 -22.799988,-23.199997c0,-6.400009 2.700012,-12.100006 7.5,-16.400009l9.799988,-9.599991c9.700012,-9.600006 9.700012,-25.199997 0,-34.900009l-22.299988,-22.099991c-4.399994,-4.400002 -10.899994,-7 -17.5,-7c-6.600006,0 -13,2.599998 -17.5,7l-9.399994,9.399994c-4.5,5 -10.700012,7.700005 -17.200012,7.700005c-12.799988,0 -23.699982,-10.400002 -23.699982,-22.700005l0,-15.099998c0,-13.5 -10.5,-25.099998 -24,-25.099998l-30.400009,0c-13.800003,0 -24.800003,11.5 -24.800003,25.099998l0,15.200005c0,12.299995 -10.600006,22.699997 -23.399994,22.699997c-6.400009,0 -12.200012,-2.699997 -16.600006,-7.400002l-9.699997,-9.599998c-4.400009,-4.5 -10.900009,-7 -17.5,-7s-13,2.599998 -17.5,7l-22.300003,22c-9.599998,9.600006 -9.599998,25.300003 0,34.800003l9.400002,9.399994c5,4.5 7.799995,10.199997 7.799995,16.699997c0,12.800003 -10.399994,23.200012 -22.799995,23.200012l-15.200005,0c-13.699997,-0.100006 -25.199997,11.099991 -25.199997,24.699997l0,15.199997l0,15.200012c0,13.5 11.5,24.799988 25.199997,24.799988l15.200005,0c12.400002,0 22.799995,10.399994 22.799995,23.200012c0,6.399994 -2.799995,12.299988 -7.799995,16.799988l-9.400002,9.200012c-9.599998,9.599976 -9.599998,25.199982 0,34.799988l22.300003,22.200012c4.399994,4.5 10.899994,7 17.5,7c6.599991,0 13,-2.600006 17.5,-7l9.699997,-9.600006c4.199997,-4.700012 10.100006,-7.399994 16.5,-7.399994c12.800003,0 23.399994,10.399994 23.399994,22.699982l0,15.200012c0,13.5 11,25.100006 24.700012,25.100006l30.399994,0c13.600006,0 24.899994,-11.5 24.899994,-25.100006l0,-15.200012c0,-12.299988 10.5,-22.699982 23.300018,-22.699982c6.399994,0 12.299988,2.799988 16.899994,7.699982l9.399994,9.399994c4.5,4.400024 10.899994,7 17.5,7c6.600006,0 13,-2.599976 17.5,-7l22.299988,-22.199982c9.600006,-9.600006 9.600006,-25.300018 0,-34.899994l-9.799988,-9.600006c-4.799988,-4.300018 -7.5,-10.399994 -7.5,-16.700012c0,-12.800018 10.399994,-23.600006 22.799988,-23.600006l15.200012,0c13.600006,0 23.299988,-10.299988 23.299988,-23.899994l0,-15.399994l0,-15.199997c0,-13.600006 -9.699982,-24.800003 -23.299988,-24.800003zm7.5,40l0,15.100006c0,4.199982 -2.299988,7.899994 -7.299988,7.899994l-15.200012,0c-10.299988,0 -20.100006,4.399994 -27.5,12c-7.299988,7.5 -11.299988,17.399994 -11.299988,27.799988c0,10.800018 4.399994,20.800018 12.5,28.200012l9.5,9.399994c3.299988,3.399994 3.299988,9 0,12.300018l-22.300018,22.199982c-1.600006,1.5 -3.899994,2.399994 -6.299988,2.399994c-2.399994,0 -4.800018,-0.899994 -6.300018,-2.399994l-9.099976,-9.100006c-7.700012,-8.099976 -17.800018,-12.599976 -28.5,-12.599976c-10.400024,0 -20,4 -27.5,11.199982c-7.600006,7.399994 -11.600006,17.100006 -11.600006,27.5l0,15.200012c0,4.899994 -4.300018,9.100006 -8.899994,9.100006l-30.400009,0c-4.600006,0 -8.699997,-4.200012 -8.699997,-9.100006l0,-15.200012c0,-10.299988 -4.100006,-20.100006 -11.700012,-27.5c-7.5,-7.199982 -17.299988,-11.199982 -27.599991,-11.199982c-10.600006,0 -20.800003,4.5 -28.100006,12.399994l-9.300003,9.299988c-1.599991,1.5 -3.899994,2.399994 -6.299988,2.399994c-2.400009,0 -4.800003,-0.799988 -6.100006,-2.199982l-0.100006,-0.100006l-0.099991,-0.100006l-22.300003,-22.199982c-3.300003,-3.300018 -3.300003,-8.800018 0,-12.200012l9.100006,-9c8.199997,-7.600006 12.699997,-17.700012 12.699997,-28.5c0,-10.399994 -4,-19.899994 -11.300003,-27.399994c-7.400002,-7.600006 -17.199997,-11.5 -27.5,-11.5l-15.300003,0c-5,0 -9.199997,-4.300018 -9.199997,-8.800018l0,-15.299988l0,-15.199997c0,-4.5 4.199997,-8.800003 9.199997,-8.800003l15.200005,0c10.299995,0 20.099998,-3.899994 27.499992,-11.5c7.300003,-7.5 11.300003,-17.199997 11.300003,-27.5c0,-10.800003 -4.5,-20.899994 -12.699997,-28.399994l-9.199997,-9.100006c-2.200005,-2.199997 -2.5,-4.699997 -2.5,-6.100006c0,-1.299988 0.299995,-3.899994 2.5,-6.099991l22.199997,-22.100006c1.600006,-1.5 3.899994,-2.399994 6.300003,-2.399994c2.399994,0 4.800003,0.799995 6.099991,2.199997l0.100006,0.099998l0.100006,0.099998l9.399994,9.400009c7.399994,8 17.399994,12.399994 28.100006,12.399994c10.399994,0 20.099991,-4 27.599991,-11.199997c7.600006,-7.400002 11.800003,-17.100006 11.800003,-27.5l0,-15.200005c0,-4.900002 4,-9.099998 8.5,-9.099998l30.5,0c4.5,0 8,4.199997 8,9.099998l0,15.200005c0,10.299995 4.399994,20.099998 12,27.5c7.5,7.199997 17.399994,11.199997 27.799988,11.199997c10.800018,0 21,-4.5 28.600006,-12.600006l9.100006,-9.099991c1.600006,-1.5 3.899994,-2.400002 6.299988,-2.400002c2.400024,0 4.800018,0.900002 6.300018,2.299995l22.299988,22.100006c1.600006,1.599991 2.600006,3.800003 2.600006,6.099991c0,2.300003 -0.899994,4.5 -2.5,6.100006l-9.5,9.399994c-8,7.400009 -12.5,17.400009 -12.5,28.200012c0,10.399994 4,19.899994 11.299988,27.399994c7.400024,7.600006 17.200012,11.5 27.5,11.5l15.200012,0c5.399994,0 7.399994,5 7.5,9l0,15z"/>
  </g>
 </g>
</svg>