<?xml version="1.0"?>
<svg width="512" height="512" xmlns="http://www.w3.org/2000/svg" xmlns:svg="http://www.w3.org/2000/svg">
 <g>
  <title>Layer 1</title>
  <g fill-opacity="0.8" id="svg_1">
   <g id="svg_2">
    <path fill="#ffffff" id="svg_3" d="m160,153.300003c0,3.699997 -3,6.699997 -6.699997,6.699997l-50.5,0c-3.700005,0 -6.700005,-3 -6.700005,-6.699997l0,-50.5c0,-3.699997 3,-6.699997 6.700005,-6.699997l50.5,0c3.699997,0 6.699997,3 6.699997,6.699997l0,50.5z"/>
    <path fill="#ffffff" id="svg_4" d="m288,153.300003c0,3.699997 -3,6.699997 -6.700012,6.699997l-50.499985,0c-3.699997,0 -6.699997,-3 -6.699997,-6.699997l0,-50.5c0,-3.699997 3,-6.699997 6.699997,-6.699997l50.499985,0c3.700012,0 6.700012,3 6.700012,6.699997l0,50.5z"/>
    <path fill="#ffffff" id="svg_5" d="m416,153.300003c0,3.699997 -3,6.699997 -6.700012,6.699997l-50.5,0c-3.699982,0 -6.699982,-3 -6.699982,-6.699997l0,-50.5c0,-3.699997 3,-6.699997 6.699982,-6.699997l50.5,0c3.700012,0 6.700012,3 6.700012,6.699997l0,50.5z"/>
   </g>
   <g id="svg_6">
    <path fill="#ffffff" id="svg_7" d="m160,281.299988c0,3.700012 -3,6.700012 -6.699997,6.700012l-50.5,0c-3.700005,0 -6.700005,-3 -6.700005,-6.700012l0,-50.5c0,-3.699997 3,-6.699997 6.700005,-6.699997l50.5,0c3.699997,0 6.699997,3 6.699997,6.699997l0,50.5z"/>
    <path fill="#ffffff" id="svg_8" d="m288,281.299988c0,3.700012 -3,6.700012 -6.700012,6.700012l-50.499985,0c-3.699997,0 -6.699997,-3 -6.699997,-6.700012l0,-50.5c0,-3.699997 3,-6.699997 6.699997,-6.699997l50.499985,0c3.700012,0 6.700012,3 6.700012,6.699997l0,50.5z"/>
    <path fill="#ffffff" id="svg_9" d="m416,281.299988c0,3.700012 -3,6.700012 -6.700012,6.700012l-50.5,0c-3.699982,0 -6.699982,-3 -6.699982,-6.700012l0,-50.5c0,-3.699997 3,-6.699997 6.699982,-6.699997l50.5,0c3.700012,0 6.700012,3 6.700012,6.699997l0,50.5z"/>
   </g>
   <g id="svg_10">
    <path fill="#ffffff" id="svg_11" d="m160,409.299988c0,3.700012 -3,6.700012 -6.699997,6.700012l-50.5,0c-3.700005,0 -6.700005,-3 -6.700005,-6.700012l0,-50.5c0,-3.700012 3,-6.700012 6.700005,-6.700012l50.5,0c3.699997,0 6.699997,3 6.699997,6.700012l0,50.5z"/>
    <path fill="#ffffff" id="svg_12" d="m288,409.299988c0,3.700012 -3,6.700012 -6.700012,6.700012l-50.499985,0c-3.699997,0 -6.699997,-3 -6.699997,-6.700012l0,-50.5c0,-3.700012 3,-6.700012 6.699997,-6.700012l50.499985,0c3.700012,0 6.700012,3 6.700012,6.700012l0,50.5z"/>
    <path fill="#ffffff" id="svg_13" d="m416,409.299988c0,3.700012 -3,6.700012 -6.700012,6.700012l-50.5,0c-3.699982,0 -6.699982,-3 -6.699982,-6.700012l0,-50.5c0,-3.700012 3,-6.700012 6.699982,-6.700012l50.5,0c3.700012,0 6.700012,3 6.700012,6.700012l0,50.5z"/>
   </g>
  </g>
 </g>
</svg>