<?xml version="1.0"?>
<svg width="512" height="512" xmlns="http://www.w3.org/2000/svg" xmlns:svg="http://www.w3.org/2000/svg">
 <g>
  <title>Layer 1</title>
  <g stroke="null" id="svg_1">
   <g stroke="null" id="svg_2">
    <path stroke="null" d="m168.95752,162.885849c0,3.353043 -2.718628,6.071671 -6.071671,6.071671l-45.76413,0c-3.353027,0 -6.071701,-2.718628 -6.071701,-6.071671l0,-45.764137c0,-3.35302 2.718674,-6.071693 6.071701,-6.071693l45.76413,0c3.353043,0 6.071671,2.718674 6.071671,6.071693l0,45.764137z" id="svg_3" fill="#ffffff"/>
    <path stroke="null" d="m284.953796,162.885849c0,3.353043 -2.718719,6.071671 -6.071747,6.071671l-45.764099,0c-3.352997,0 -6.071686,-2.718628 -6.071686,-6.071671l0,-45.764137c0,-3.35302 2.718689,-6.071693 6.071686,-6.071693l45.764099,0c3.353027,0 6.071747,2.718674 6.071747,6.071693l0,45.764137z" id="svg_4" fill="#ffffff"/>
    <path stroke="null" d="m400.949982,162.885849c0,3.353043 -2.718628,6.071671 -6.071655,6.071671l-45.764191,0c-3.352936,0 -6.071625,-2.718628 -6.071625,-6.071671l0,-45.764137c0,-3.35302 2.718689,-6.071693 6.071625,-6.071693l45.764191,0c3.353027,0 6.071655,2.718674 6.071655,6.071693l0,45.764137z" id="svg_5" fill="#ffffff"/>
   </g>
   <g stroke="null" id="svg_6">
    <path stroke="null" d="m168.95752,278.88205c0,3.353027 -2.718628,6.071716 -6.071671,6.071716l-45.76413,0c-3.353027,0 -6.071701,-2.718689 -6.071701,-6.071716l0,-45.76413c0,-3.353027 2.718674,-6.071686 6.071701,-6.071686l45.76413,0c3.353043,0 6.071671,2.718658 6.071671,6.071686l0,45.76413z" id="svg_7" fill="#ffffff"/>
    <path stroke="null" d="m284.953796,278.88205c0,3.353027 -2.718719,6.071716 -6.071747,6.071716l-45.764099,0c-3.352997,0 -6.071686,-2.718689 -6.071686,-6.071716l0,-45.76413c0,-3.353027 2.718689,-6.071686 6.071686,-6.071686l45.764099,0c3.353027,0 6.071747,2.718658 6.071747,6.071686l0,45.76413z" id="svg_8" fill="#ffffff"/>
    <path stroke="null" d="m400.949982,278.88205c0,3.353027 -2.718628,6.071716 -6.071655,6.071716l-45.764191,0c-3.352936,0 -6.071625,-2.718689 -6.071625,-6.071716l0,-45.76413c0,-3.353027 2.718689,-6.071686 6.071625,-6.071686l45.764191,0c3.353027,0 6.071655,2.718658 6.071655,6.071686l0,45.76413z" id="svg_9" fill="#ffffff"/>
   </g>
   <g stroke="null" id="svg_10">
    <path stroke="null" d="m168.95752,394.878326c0,3.353027 -2.718628,6.071655 -6.071671,6.071655l-45.76413,0c-3.353027,0 -6.071701,-2.718628 -6.071701,-6.071655l0,-45.764191c0,-3.353027 2.718674,-6.071655 6.071701,-6.071655l45.76413,0c3.353043,0 6.071671,2.718628 6.071671,6.071655l0,45.764191z" id="svg_11" fill="#ffffff"/>
    <path stroke="null" d="m284.953796,394.878326c0,3.353027 -2.718719,6.071655 -6.071747,6.071655l-45.764099,0c-3.352997,0 -6.071686,-2.718628 -6.071686,-6.071655l0,-45.764191c0,-3.353027 2.718689,-6.071655 6.071686,-6.071655l45.764099,0c3.353027,0 6.071747,2.718628 6.071747,6.071655l0,45.764191z" id="svg_12" fill="#ffffff"/>
    <path stroke="null" d="m400.949982,394.878326c0,3.353027 -2.718628,6.071655 -6.071655,6.071655l-45.764191,0c-3.352936,0 -6.071625,-2.718628 -6.071625,-6.071655l0,-45.764191c0,-3.353027 2.718689,-6.071655 6.071625,-6.071655l45.764191,0c3.353027,0 6.071655,2.718628 6.071655,6.071655l0,45.764191z" id="svg_13" fill="#ffffff"/>
   </g>
  </g>
 </g>
</svg>