<?xml version="1.0"?>
<svg width="512" height="512" xmlns="http://www.w3.org/2000/svg" xmlns:svg="http://www.w3.org/2000/svg">
 <g>
  <title>Layer 1</title>
  <g stroke="null" fill-opacity="0.8" id="svg_1">
   <path stroke="null" fill="#ffffff" id="svg_2" d="m331.5,229c18.810272,0 34.071442,-15.261169 34.071442,-34.071426c0,-18.810257 -15.261169,-34.071426 -34.071442,-34.071426c-18.810272,0 -34.071411,15.261169 -34.071411,34.071426c0,18.810257 15.261139,34.071426 34.071411,34.071426z"/>
   <path stroke="null" fill="#ffffff" id="svg_3" d="m391.125,115.428589l-278.249985,0c-11.073212,0 -19.875,9.014725 -19.875,20.087936l0,232.395523c0,11.073212 8.801788,20.087952 19.875,20.087952l278.249985,0c11.073212,0 19.875,-9.01474 19.875,-20.087952l0,-232.395523c0,-11.073212 -8.801788,-20.087936 -19.875,-20.087936zm-73.182587,140.331696c-2.129456,-2.484375 -5.394653,-4.400879 -9.085724,-4.400879c-3.620087,0 -6.175446,1.703552 -9.085724,4.045959l-13.273621,11.215179c-2.768341,1.987518 -4.96875,3.336151 -8.162964,3.336151c-3.052246,0 -5.820526,-1.135712 -7.808044,-2.910248c-0.709808,-0.638855 -1.987488,-1.845551 -3.052246,-2.910278l-38.188385,-41.311615c-2.839264,-3.265167 -7.098206,-5.323639 -11.854004,-5.323639c-4.755798,0 -9.156708,2.342407 -11.924988,5.536591l-89.792419,108.318756l0,-184.908493c0.709824,-4.826782 4.471878,-8.304901 9.29866,-8.304901l253.903122,0c4.897766,0 8.872772,3.620087 9.156708,8.517853l0.212921,184.837479l-70.343292,-75.737915z"/>
  </g>
 </g>
</svg>