<?xml version="1.0"?>
<svg width="512" height="512" xmlns="http://www.w3.org/2000/svg" xmlns:svg="http://www.w3.org/2000/svg">
 <g>
  <title>Layer 1</title>
  <g stroke="null" id="svg_1">
   <path fill="#ffffff" stroke="null" id="svg_2" d="m337.000005,232.857143c19.165179,0 34.714287,-15.549108 34.714287,-34.714287c0,-19.165179 -15.549108,-34.714287 -34.714287,-34.714287c-19.165179,0 -34.714287,15.549108 -34.714287,34.714287c0,19.165179 15.549108,34.714287 34.714287,34.714287z"/>
   <path fill="#ffffff" stroke="null" id="svg_3" d="m397.750007,117.142854l-283.500009,0c-11.282143,0 -20.250001,9.184822 -20.250001,20.466965l0,236.780365c0,11.282143 8.967857,20.466965 20.250001,20.466965l283.500009,0c11.282143,0 20.250001,-9.184822 20.250001,-20.466965l0,-236.780365c0,-11.282143 -8.967857,-20.466965 -20.250001,-20.466965zm-74.563395,142.979469c-2.169643,-2.53125 -5.496429,-4.483929 -9.257143,-4.483929c-3.688393,0 -6.291964,1.735714 -9.257143,4.122322l-13.524108,11.426786c-2.820536,2.025 -5.0625,3.399107 -8.316965,3.399107c-3.109822,0 -5.930357,-1.157143 -7.955357,-2.965179c-0.723214,-0.650893 -2.025,-1.880357 -3.109822,-2.965179l-38.90893,-42.091073c-2.892857,-3.326786 -7.232143,-5.424107 -12.077679,-5.424107c-4.845536,0 -9.329465,2.386607 -12.15,5.641072l-91.48661,110.362503l0,-188.397327c0.723214,-4.917857 4.55625,-8.461607 9.474107,-8.461607l258.693758,0c4.990179,0 9.040179,3.688393 9.329465,8.678572l0.216964,188.325006l-71.670538,-77.166967z"/>
  </g>
 </g>
</svg>