<?xml version="1.0"?>
<svg width="512" height="512" xmlns="http://www.w3.org/2000/svg" xmlns:svg="http://www.w3.org/2000/svg">
 <g>
  <title>Layer 1</title>
  <g stroke="null" id="svg_1">
   <path fill="#ffffff" stroke="null" id="svg_2" d="m425.860591,253.724585c-1.289408,-93.82342 -78.35052,-168.836648 -172.17394,-167.623087s-168.836648,78.35052 -167.623087,172.17394c1.289408,93.82342 78.35052,168.836648 172.17394,167.623087c93.82342,-1.289408 168.912495,-78.35052 167.623087,-172.17394zm-169.898513,-107.020894c13.425016,0 24.271216,10.8462 24.271216,24.271216s-10.8462,24.271216 -24.271216,24.271216c-13.425016,0 -24.271216,-10.8462 -24.271216,-24.271216s10.8462,-24.271216 24.271216,-24.271216zm33.372922,214.724416l-66.745845,0l0,-8.343231l16.686461,0l0,-121.356081l-16.686461,0l0,-9.101706l50.059383,0l0,130.457787l16.686461,0l0,8.343231z"/>
  </g>
 </g>
</svg>