<?xml version="1.0"?>
<svg width="512" height="512" xmlns="http://www.w3.org/2000/svg" xmlns:svg="http://www.w3.org/2000/svg">
 <g>
  <title>Layer 1</title>
  <g fill-opacity="0.8" id="svg_1">
   <path fill="#ffffff" id="svg_2" d="m256,48c-114.899994,0 -208,93.100006 -208,208c0,114.899994 93.099991,208 208,208c114.899994,0 208,-93.100006 208,-208c0,-114.899994 -93.100006,-208 -208,-208zm-4.5,104c11.100006,0 20,9 20,20s-9,20 -20,20c-11,0 -20,-9 -20,-20s8.899994,-20 20,-20zm36.5,200l-64,0l0,-8l16,0l0,-120l-16,0l0,-8l48,0l0,128l16,0l0,8z"/>
  </g>
 </g>
</svg>