<?xml version="1.0"?>
<svg width="512" height="512" xmlns="http://www.w3.org/2000/svg" xmlns:svg="http://www.w3.org/2000/svg">
 <g>
  <title>Layer 1</title>
  <g fill-opacity="0.8" id="svg_1">
   <g id="svg_2">
    <circle fill="#ffffff" id="svg_3" r="20" cy="172" cx="251.5"/>
    <polygon fill="#ffffff" id="svg_4" points="272,344 272,216 224,216 224,224 240,224 240,344 224,344 224,352 288,352 288,344   "/>
   </g>
   <g id="svg_5">
    <path fill="#ffffff" id="svg_6" d="m256,48c-114.899994,0 -208,93.100006 -208,208c0,114.899994 93.099991,208 208,208c114.899994,0 208,-93.100006 208,-208c0,-114.899994 -93.100006,-208 -208,-208zm0,398.700012c-105.099991,0 -190.699997,-85.5 -190.699997,-190.700012c0,-105.099976 85.5,-190.699982 190.699997,-190.699982c105.100006,0 190.700012,85.5 190.700012,190.699982c0,105.100006 -85.600006,190.700012 -190.700012,190.700012z"/>
   </g>
  </g>
 </g>
</svg>