<?xml version="1.0"?>
<svg width="512" height="512" xmlns="http://www.w3.org/2000/svg" xmlns:svg="http://www.w3.org/2000/svg">
 <g>
  <title>Layer 1</title>
  <g stroke="null" id="svg_1">
   <path stroke="null" d="m255.991347,94.5c-68.864608,0 -127.652769,43.117613 -150.873442,103.821431l24.974102,0c6.774344,-14.768603 16.191095,-28.37065 28.02313,-40.203405c26.144977,-26.146417 60.904974,-40.546597 97.876219,-40.546597c36.976284,0 71.740609,14.40018 97.888465,40.547317c26.148586,26.147137 40.548757,60.908573 40.548757,97.881258c0,36.975574 -14.400171,71.738449 -40.547317,97.884146c-26.147857,26.145697 -60.912901,40.544428 -97.889905,40.544428c-36.972685,0 -71.732682,-14.398731 -97.876939,-40.543709c-11.832755,-11.832764 -21.249506,-25.436251 -28.025299,-40.206293l-24.972653,0c23.219945,60.707418 82.008835,103.821431 150.875611,103.821431c89.195585,0 161.507931,-72.303699 161.507931,-161.500004c0,-89.186938 -72.312347,-161.500004 -161.508651,-161.500004l-0.000009,0z" id="svg_2" fill="#ffffff"/>
   <polygon stroke="null" points="220.5731201171875,304.9424514770508 236.88677978515625,321.25611114501953 302.1428527832031,256.00000762939453 236.88677978515625,190.74390411376953 220.57237243652344,207.05828094482422 257.9790954589844,244.46430206298828 94.5,244.46430206298828 94.5,267.5357131958008 257.9790954589844,267.5357131958008 " id="svg_3" fill="#ffffff"/>
  </g>
 </g>
</svg>