<?xml version="1.0"?>
<svg width="512" height="512" xmlns="http://www.w3.org/2000/svg" xmlns:svg="http://www.w3.org/2000/svg">
 <g>
  <title>Layer 1</title>
  <g stroke="null" id="svg_1">
   <path fill="#ffffff" stroke="null" id="svg_2" d="m333.674999,215.099996l0,-53.775001c0,-42.893032 -34.775994,-77.675001 -77.663051,-77.675001c-42.910957,0 -77.686951,34.781969 -77.686951,77.675001l0,53.775001l-41.825001,0l0,179.250003l239.000003,0l0,-179.250003l-41.825001,0zm-71.700001,94.847151l0,24.65285l-11.95,0l0,-24.65285c-10.308369,-2.653647 -17.925,-12.011244 -17.925,-23.14715c0,-13.199522 10.700478,-23.9 23.9,-23.9s23.9,10.700478 23.9,23.9c0,11.135906 -7.616631,20.493503 -17.925,23.14715zm59.750001,-94.847151l-131.450002,0l0,-53.775001c0,-36.240616 29.489613,-65.725001 65.736951,-65.725001c36.234641,0 65.713051,29.484385 65.713051,65.725001l0,53.775001z"/>
   <path fill="#ffffff" stroke="null" id="svg_3" d="m255.999998,274.849997c-6.588931,0 -11.95,5.361069 -11.95,11.95s5.361069,11.95 11.95,11.95s11.95,-5.361069 11.95,-11.95s-5.361069,-11.95 -11.95,-11.95z"/>
  </g>
 </g>
</svg>