<?xml version="1.0"?>
<svg width="512" height="512" xmlns="http://www.w3.org/2000/svg" xmlns:svg="http://www.w3.org/2000/svg">
 <g>
  <title>Layer 1</title>
  <g stroke="null" id="svg_1">
   <polygon stroke="null" points="334.4454345703125,304.03328704833984 350.4560546875,320.04393768310547 414.5,256.0000228881836 350.4560546875,191.95612335205078 334.4447326660156,207.9674301147461 371.1565856933594,244.67855072021484 210.7142791748047,244.67855072021484 210.7142791748047,267.3214645385742 371.1565856933594,267.3214645385742 " id="svg_2" fill="#ffffff"/>
   <g stroke="null" id="svg_3">
    <path stroke="null" d="m351.87197,352.06657c-25.658601,25.659309 -59.772187,39.790574 -96.058778,39.790574c-36.29013,0 -70.409376,-14.131265 -96.070808,-39.791281c-25.662139,-25.660016 -39.599525,-59.77714 -39.599525,-96.065854c0,-36.285884 13.937385,-70.401592 39.600232,-96.063024c25.662139,-25.661432 59.780678,-39.794112 96.0701,-39.794112c36.284469,0 70.398762,14.13268 96.058778,39.793404c1.788078,1.788785 3.513889,3.623564 5.188752,5.492307l28.820818,0c-28.638967,-41.059989 -76.21373,-67.928568 -130.068348,-67.928568c-87.539404,0 -158.313188,70.969787 -158.313188,158.499991c0,87.539404 70.773784,158.499991 158.313188,158.499991c53.856033,0 101.432918,-26.867164 130.070471,-67.928568l-28.82011,0c-1.675571,1.870159 -3.401382,3.704938 -5.191582,5.495138l0,0.000002z" id="svg_4" fill="#ffffff"/>
   </g>
  </g>
 </g>
</svg>