<?xml version="1.0"?>
<svg width="512" height="512" xmlns="http://www.w3.org/2000/svg" xmlns:svg="http://www.w3.org/2000/svg">
 <g>
  <title>Layer 1</title>
  <g fill-opacity="0.8" id="svg_1">
   <path fill="#ffffff" id="svg_2" d="m363.299988,363.899994c-12.899994,-4.600006 -31.399994,-6.200012 -43.200012,-8.799988c-6.799988,-1.5 -16.699982,-5.300018 -20,-9.200012c-3.299988,-4 -1.299988,-40.899994 -1.299988,-40.899994s6.100006,-9.600006 9.399994,-18s6.899994,-31.400009 6.899994,-31.400009s6.800018,0 9.200012,-11.899994c2.600006,-13 6.600006,-18.400009 6.100006,-28.100006c-0.5,-9 -5.200012,-9.5 -5.700012,-9.5l0,0c0,0 4.899994,-13.600006 5.600006,-42.399994c0.800018,-34.099991 -25.299988,-67.699997 -74.299988,-67.699997s-75,33.5 -74.300003,67.599991c0.600006,28.700012 5.600006,42.400009 5.600006,42.400009l0,0c-0.5,0 -5.200012,0.5 -5.700012,9.5c-0.5,9.699997 3.600006,14.899994 6.100006,27.899994c2.399994,11.900009 9.199997,12 9.199997,12s3.600006,23.100006 6.900009,31.5c3.299988,8.5 9.399994,18 9.399994,18s2,36.899994 -1.300003,40.899994c-3.300003,4 -13.199997,7.700012 -20,9.200012c-11.899994,2.600006 -30.300003,4.299988 -43.199997,8.899994c-12.899994,4.600006 -52.699997,20.100006 -52.699997,52.100006l160,0l160,0c0,-32 -39.799988,-47.5 -52.700012,-52.100006z"/>
  </g>
 </g>
</svg>