<?xml version="1.0"?>
<svg width="512" height="512" xmlns="http://www.w3.org/2000/svg" xmlns:svg="http://www.w3.org/2000/svg">
 <g>
  <title>Layer 1</title>
  <g id="svg_1">
   <path fill="#ffffff" id="svg_2" d="m202.399994,201.699997l0,0l0,0z"/>
   <path fill="#ffffff" id="svg_3" d="m363.299988,363.899994c-12.899994,-4.600006 -31.399994,-6.200012 -43.200012,-8.800018c-6.799988,-1.5 -16.699982,-5.299988 -20,-9.199982c-3.299988,-4 -1.299988,-40.899994 -1.299988,-40.899994s6.100006,-9.600006 9.399994,-18s6.899994,-31.400009 6.899994,-31.400009s6.800018,0 9.200012,-11.899994c2.600006,-13 6.600006,-18.400009 6.100006,-28.100006c-0.5,-9 -5.200012,-9.5 -5.700012,-9.5l0,0c0,0 4.899994,-13.600006 5.600006,-42.399994c0.800018,-34.099991 -25.299988,-67.699997 -74.299988,-67.699997s-75,33.5 -74.300003,67.600006c0.600006,28.699997 5.600006,42.399994 5.600006,42.399994l0,0c-0.5,0 -5.199997,0.5 -5.699997,9.5c-0.5,9.699997 3.599991,14.899994 6.099991,27.899994c2.400009,11.900009 9.199997,12 9.199997,12s3.600006,23.100006 6.900009,31.5c3.300003,8.5 9.399994,18 9.399994,18s2,36.899994 -1.300003,40.899994c-3.299988,4 -13.199997,7.700012 -20,9.200012c-11.899994,2.600006 -30.299988,4.299988 -43.199997,8.899994c-12.899994,4.600006 -52.699997,20.100006 -52.699997,52.100006l160,0l160,0c0,-32 -39.799988,-47.5 -52.700012,-52.100006zm-107.299988,36.100006l-137.300003,0c2,-3 4.700005,-5.100006 8.200005,-7.600006c6.999992,-5.100006 16.099998,-9.799988 27.099998,-13.600006c6.800003,-2.399994 16.699997,-4 25.399994,-5.299988c5.700012,-0.899994 11.100006,-1.700012 15.900009,-2.799988c3.399994,-0.800018 20.800003,-5 28.800003,-14.600006c4.5,-5.399994 5.799988,-12.700012 5.599991,-32.300018c-0.099991,-10 -0.599991,-19.299988 -0.599991,-19.699982l-0.200012,-4.200012l-2.299988,-3.5c-1.5,-2.299988 -5.800003,-9.5 -8,-15.299988c-1.800003,-4.700012 -4.600006,-19.200012 -6,-28.100006c0,0 0.399994,1 -0.5,-3.699997c-0.900009,-4.699997 -8.400009,-4.300003 -9.400009,-8c-0.899994,-3.600006 -1.800003,-6.900009 -4.300003,-18.199997c-2.5,-11.300003 2.800003,-11.200012 3.900009,-16.200012c0.599991,-3.099991 0,-5.699997 0,-5.799988l0,0c-0.300003,-1 -4.100006,-13.400009 -4.699997,-37.700012c-0.300003,-13.199997 4.599991,-25.599991 13.799988,-34.900009c10.600006,-10.799995 26,-16.499992 44.5,-16.499992c19,0 34,5.699997 44.600006,16.499992c9.199982,9.300003 14.100006,21.700012 13.799988,34.900009c-0.5,24.200012 -4.299988,36.599991 -4.699982,37.700012l0,0c0,0.099991 -0.600006,1.699997 -0.399994,5.199997c0.199982,5.399994 6.799988,5.5 4.299988,16.800003c-2.5,11.299988 -3.399994,14.599991 -4.299988,18.199997c-0.900024,3.599991 -8.5,3.300003 -9.400024,8c-0.899994,4.699997 -0.5,3.699997 -0.5,3.699997c-1.399994,8.899994 -4.199982,23.399994 -6,28.100006c-2.299988,5.799988 -6.599976,13 -8,15.299988l-2.299988,3.5l-0.200012,4.200012c0,0.399994 -0.5,9.699982 -0.599976,19.699982c-0.200012,19.600006 1.099976,26.900024 5.599976,32.300018c8,9.5 25.399994,13.799988 28.799988,14.600006c4.800018,1.099976 10.200012,1.899994 15.900024,2.799988c8.699982,1.299988 18.599976,2.899994 25.399994,5.299988c11,3.900024 20.199982,8.600006 27.100006,13.700012c3.5,2.5 6.199982,4.600006 8.199982,7.600006l-137.199982,-0.100006l0,0z"/>
  </g>
 </g>
</svg>