<?xml version="1.0"?>
<svg width="512" height="512" xmlns="http://www.w3.org/2000/svg" xmlns:svg="http://www.w3.org/2000/svg">
 <g>
  <title>Layer 1</title>
  <g fill-opacity="0.8" id="svg_1">
   <path fill="#ffffff" id="svg_2" d="m287.799988,240c8.799988,0 16.100006,7.199997 16.100006,16s-7,16 -15.899994,16l-64.000015,0c-8.800003,0 -16,-7.200012 -16,-16s7.199997,-16 16,-16l63.000015,0m1,-16l-64,0c-17.600006,0 -32,14.399994 -32,32s14.399994,32 32,32l64,0c17.600006,0 32,-14.399994 32,-32s-14.399994,-32 -32,-32l0,0z"/>
   <g id="svg_3">
    <path fill="#ffffff" id="svg_4" d="m416,112l-320,0l0,80l16,0l0,208l288,0l0,-208l16,0l0,-80zm-32,272l-256,0l0,-192l256,0l0,192zm16,-208l-288,0l0,-48l288,0l0,48z"/>
   </g>
  </g>
 </g>
</svg>