<?xml version="1.0"?>
<svg width="512" height="512" xmlns="http://www.w3.org/2000/svg" xmlns:svg="http://www.w3.org/2000/svg">
 <g>
  <title>Layer 1</title>
  <g stroke="null" id="svg_1">
   <path fill="#ffffff" stroke="null" id="svg_2" d="m256,67c-104.371875,0 -189,84.628125 -189,189s84.628125,189 189,189c104.371875,0 189,-84.628125 189,-189s-84.628125,-189 -189,-189zm17.04375,275.653125c-0.421875,15.01875 -11.559375,24.3 -25.9875,23.878125c-13.8375,-0.421875 -24.721875,-10.29375 -24.3,-25.396875c0.421875,-15.01875 11.896875,-24.553125 25.734375,-24.13125c14.5125,0.421875 25.059375,10.63125 24.553125,25.65zm41.090625,-107.409375c-3.54375,4.978125 -11.475,11.390625 -21.43125,19.153125l-11.053125,7.59375c-5.4,4.134375 -8.775,9.028125 -10.546875,14.596875c-0.928125,2.953125 -1.603125,10.63125 -1.771875,15.778125c-0.084375,1.0125 -0.675,3.290625 -3.796875,3.290625c-3.121875,0 -29.53125,0 -32.990625,0c-3.459375,0 -3.88125,-2.025 -3.796875,-3.0375c0.50625,-14.00625 2.53125,-25.565625 8.353125,-34.846875c7.846875,-12.4875 29.953125,-25.65 29.953125,-25.65c3.375,-2.53125 5.990625,-5.23125 8.015625,-8.184375c3.7125,-5.0625 6.75,-10.715625 6.75,-16.790625c0,-7.003125 -1.6875,-13.66875 -6.159375,-19.2375c-5.23125,-6.496875 -10.884375,-9.61875 -21.76875,-9.61875c-10.715625,0 -16.959375,5.4 -21.43125,12.4875c-4.471875,7.0875 -3.7125,15.440625 -3.7125,23.034375l-41.090625,0c0,-28.6875 7.509375,-46.996875 23.371875,-57.796875c10.715625,-7.340625 24.384375,-10.546875 40.33125,-10.546875c20.925,0 37.546875,3.88125 52.228125,15.01875c13.584375,10.29375 20.75625,24.80625 20.75625,44.38125c0,12.065625 -4.21875,22.190625 -10.209375,30.375z"/>
  </g>
 </g>
</svg>