<?xml version="1.0"?>
<svg width="512" height="512" xmlns="http://www.w3.org/2000/svg" xmlns:svg="http://www.w3.org/2000/svg">
 <g>
  <title>Layer 1</title>
  <g fill-opacity="0.8" id="svg_1">
   <path fill="#ffffff" id="svg_2" d="m400,113.300003l-80,0l0,-20c0,-16.200005 -13.100006,-29.299995 -29.299988,-29.299995l-69.500015,0c-16.099991,-0.000008 -29.199997,13.099991 -29.199997,29.299995l0,20l-80,0l0,14.699997l21.100006,0l23.599991,290.700012c0,16.200012 13.100006,29.299988 29.300003,29.299988l141,0c16.200012,0 29.299988,-13.099976 29.299988,-29.299988l23.300018,-290.700012l20.399994,0l0,-14.699997zm-193.399994,-20c0,-8.099998 6.600006,-14.699997 14.600006,-14.699997l69.5,0c8.100006,0 14.600006,6.599998 14.600006,14.699997l0,20l-98.700012,0l0,-20zm135,324.599991l0,0.399994l0,0.399994c0,8.100006 -6.600006,14.700012 -14.600006,14.700012l-141,0c-8.100006,0 -14.600006,-6.600006 -14.600006,-14.700012l0,-0.399994l0,-0.399994l-23.699997,-289.899994l217.199997,0l-23.299988,289.899994z"/>
   <g id="svg_3">
    <rect fill="#ffffff" id="svg_4" y="160" x="249" width="14" height="241"/>
    <polygon fill="#ffffff" id="svg_5" points="320,160 305.4,160 294.7,401 309.3,401   "/>
    <polygon fill="#ffffff" id="svg_6" points="206.5,160 192,160 202.7,401 217.3,401   "/>
   </g>
  </g>
 </g>
</svg>