<?xml version="1.0"?>
<svg width="512" height="512" xmlns="http://www.w3.org/2000/svg" xmlns:svg="http://www.w3.org/2000/svg">
 <g>
  <title>Layer 1</title>
  <g fill-opacity="0.8" id="svg_1">
   <path fill="#ffffff" id="svg_2" d="m320,113l0,-19.699997c0,-16.200005 -13.100006,-29.299995 -29.299988,-29.299995l-69.500015,0c-16.099991,-0.000008 -29.199997,13.099991 -29.199997,29.299995l0,19.699997l-80,0l0,15l21.100006,0l23.599991,290.700012c0,16.200012 13.100006,29.299988 29.300003,29.299988l141,0c16.200012,0 29.299988,-13.099976 29.299988,-29.299988l23.300018,-290.700012l20.399994,0l0,-15l-80,0zm-113,-19.699997c0,-8.099998 6.199997,-14.300003 14.300003,-14.300003l69.499985,0c8.100006,0 14.300018,6.200005 14.300018,14.300003l0,19.699997l-98,0l0,-19.699997l-0.100006,0zm-4.300003,307.699997l-10.699997,-241l14.5,0l10.899994,241l-14.699997,0zm60.300003,0l-14,0l0,-241l14,0l0,241zm46.299988,0l-14.600006,0l10.800018,-241l14.5,0l-10.700012,241z"/>
  </g>
 </g>
</svg>