<?xml version="1.0"?>
<svg width="512" height="512" xmlns="http://www.w3.org/2000/svg" xmlns:svg="http://www.w3.org/2000/svg">
 <g>
  <title>Layer 1</title>
  <g stroke="null" id="svg_1">
   <path fill="#ffffff" stroke="null" id="svg_2" d="m392.310352,149.985622c-2.074476,-7.779285 -3.45746,-12.10111 -3.45746,-12.10111c-2.247349,-8.038594 -7.952158,-8.038594 -16.422935,-9.421578l-45.897781,-5.791245c-5.704809,-0.950801 -5.704809,-0.950801 -7.952158,-5.877682c-7.519975,-16.941554 -9.853761,-26.795315 -18.065228,-26.795315l-89.029594,0c-8.211467,0 -10.458816,9.853761 -17.978792,26.881751c-2.247349,4.840444 -2.247349,4.840444 -7.952158,5.877682l-45.984218,5.791245c-8.38434,1.382984 -14.434895,2.160912 -16.682244,10.199507c0,0 -1.037238,3.543896 -3.19815,11.236745c-2.765968,10.285943 -3.889642,9.162269 5.618372,9.162269l261.383973,0c9.508015,0.086436 8.470777,1.123674 5.618372,-9.162269z"/>
   <path fill="#ffffff" stroke="null" id="svg_3" d="m362.662632,186.80757l-213.32528,0c-14.348459,0 -15.039951,1.901603 -14.175586,12.706165l16.163625,209.694947c1.382984,10.631689 2.420222,12.792602 15.126387,12.792602l179.096426,0c12.706165,0 13.743403,-2.160912 15.126387,-12.792602l16.163625,-209.694947c0.864365,-10.890999 0.172873,-12.706165 -14.175586,-12.706165z"/>
  </g>
 </g>
</svg>